<svg id="Camada_1" data-name="Camada 1" xmlns="http://www.w3.org/2000/svg" viewBox="0 0 255.66 118.1"><defs><style>.cls-1{fill:#f8f7f2;}</style></defs><path class="cls-1" d="M126.62.53V3.05a25.16,25.16,0,0,1-25.16,25.16H76.3V.53Z" transform="translate(-0.81 -0.53)"/><path class="cls-1" d="M101.46,31.23H76.3v78.68H51.13V84.75H.81v8.38A25.16,25.16,0,0,0,26,118.3h75.49a25.16,25.16,0,0,0,25.16-25.17V56.4A25.16,25.16,0,0,0,101.46,31.23Z" transform="translate(-0.81 -0.53)"/><path class="cls-1" d="M130.65,56.4V93.13a25.17,25.17,0,0,0,25.16,25.17H181V31.23H155.81A25.17,25.17,0,0,0,130.65,56.4Z" transform="translate(-0.81 -0.53)"/><path class="cls-1" d="M256.47,45v73.64H206.14V28.21H155.81A25.17,25.17,0,0,1,130.65,3.05V.53H181V19.82h50.33A25.17,25.17,0,0,1,256.47,45Z" transform="translate(-0.81 -0.53)"/></svg>